<svg xmlns="http://www.w3.org/2000/svg" width="24" height="24" id="camera">
  <path fill="none" d="M0 0h24v24H0Z"></path>
  <path fill="#525863" d="M12 9.6a3.75 3.75 0 1 0 3.75 3.75A3.75 3.75 0 0 0 12 9.6Zm0 5.7a1.95 1.95 0 1 1 1.95-1.95A1.952 1.952 0 0 1 12 15.3Zm7.2-8.4h-2.85a.6.6 0 0 1-.6-.6 2.4 2.4 0 0 0-2.4-2.4h-2.7a2.4 2.4 0 0 0-2.4 2.4.6.6 0 0 1-.6.6H4.8a2.4 2.4 0 0 0-2.4 2.4v8.4a2.4 2.4 0 0 0 2.4 2.4h14.4a2.4 2.4 0 0 0 2.4-2.4V9.3a2.4 2.4 0 0 0-2.4-2.4Zm.6 10.8a.6.6 0 0 1-.6.6H4.8a.6.6 0 0 1-.6-.6V9.3a.6.6 0 0 1 .6-.6h2.85a2.4 2.4 0 0 0 2.4-2.4.6.6 0 0 1 .6-.6h2.7a.6.6 0 0 1 .6.6 2.4 2.4 0 0 0 2.4 2.4h2.85a.6.6 0 0 1 .6.6Z"></path>
</svg>
